<?xml version="1.0" encoding="UTF-8" standalone="no"?>
<svg
   xmlns:dc="http://purl.org/dc/elements/1.1/"
   xmlns:cc="http://creativecommons.org/ns#"
   xmlns:rdf="http://www.w3.org/1999/02/22-rdf-syntax-ns#"
   xmlns:svg="http://www.w3.org/2000/svg"
   xmlns="http://www.w3.org/2000/svg"
   xmlns:sodipodi="http://sodipodi.sourceforge.net/DTD/sodipodi-0.dtd"
   xmlns:inkscape="http://www.inkscape.org/namespaces/inkscape"
   version="1.1"
   id="svg833"
   xml:space="preserve"
   width="26.666668"
   height="26.666668"
   viewBox="0 0 26.666668 26.666668"
   sodipodi:docname="bluelink.svg"
   inkscape:version="1.0beta2 (2b71d25, 2019-12-03)"
   inkscape:export-filename="/Volumes/SSDTB1/OneDrive - Nautilus Biotechnology/1_Nautilus_Biotechnology/0_organized/0_notebook/notebook-tural/assets/static/images/bluelink.png"
   inkscape:export-xdpi="75"
   inkscape:export-ydpi="75"><metadata
     id="metadata839"><rdf:RDF><cc:Work
         rdf:about=""><dc:format>image/svg+xml</dc:format><dc:type
           rdf:resource="http://purl.org/dc/dcmitype/StillImage" /><dc:title></dc:title></cc:Work></rdf:RDF></metadata><defs
     id="defs837"><clipPath
       clipPathUnits="userSpaceOnUse"
       id="clipPath849"><path
         d="M 0,20 H 20 V 0 H 0 Z"
         id="path847"
         inkscape:connector-curvature="0" /></clipPath></defs><sodipodi:namedview
     inkscape:pagecheckerboard="false"
     pagecolor="#ffffff"
     bordercolor="#666666"
     inkscape:document-rotation="0"
     borderopacity="1"
     objecttolerance="10"
     gridtolerance="10"
     guidetolerance="10"
     inkscape:pageopacity="0"
     inkscape:pageshadow="2"
     inkscape:window-width="1870"
     inkscape:window-height="1009"
     id="namedview835"
     showgrid="false"
     inkscape:zoom="17.129661"
     inkscape:cx="9.641493"
     inkscape:cy="12.793524"
     inkscape:window-x="50"
     inkscape:window-y="23"
     inkscape:window-maximized="1"
     inkscape:current-layer="g841" /><g
     id="g841"
     inkscape:groupmode="layer"
     inkscape:label="link"
     transform="matrix(1.3333333,0,0,-1.3333333,0,26.666667)"><g
       id="g843"><g
         id="g845"
         clip-path="url(#clipPath849)"><g
           id="g851"
           transform="translate(10.7334,6.458)"><path
             d="M 0,0 4.643,3.801 0,7.594 V 5.443 c -2.691,0 -6.109,-1.035 -6.109,-5.953 1.105,2.975 5.781,2.672 6.109,2.672 z"
             style="fill:#ffffff;fill-opacity:1;fill-rule:evenodd;stroke:none"
             id="path853"
             inkscape:connector-curvature="0" /></g><g
           id="g855"
           transform="translate(10.7334,6.458)"><path
             d="M 0,0 4.643,3.801 0,7.594 V 5.443 c -2.691,0 -6.109,-1.035 -6.109,-5.953 1.105,2.975 5.781,2.672 6.109,2.672 z"
             style="fill:none;stroke:#666666;stroke-width:0.5;stroke-linecap:butt;stroke-linejoin:miter;stroke-miterlimit:10;stroke-dasharray:none;stroke-opacity:1"
             id="path857"
             inkscape:connector-curvature="0" /></g></g></g><path
       style="fill:#0000ff;stroke:#4d4d4d;stroke-width:0.0729728"
       d="M 14.653594,16.074851 V 14.827016 H 13.87883 c -1.184866,0 -1.865605,0.049 -2.757122,0.198466 -1.993383,0.334195 -3.5163382,1.086833 -4.4695862,2.20885 l -0.05473,0.06442 v -0.04175 c 0,-0.02296 0.016889,-0.150571 0.037531,-0.283573 0.3221265,-2.075521 1.2388527,-3.60456 2.7500312,-4.586869 1.080238,-0.702187 2.477355,-1.1169 4.115668,-1.221674 0.124418,-0.008 0.434699,-0.01896 0.689512,-0.02446 l 0.463296,-0.01 0.0037,-1.2362689 0.0037,-1.2362688 2.641617,2.1581847 c 1.452889,1.187001 2.641616,2.164502 2.641616,2.172224 0,0.01278 -5.268232,4.334375 -5.283815,4.334375 -0.0037,0 -0.0067,-0.561526 -0.0067,-1.247836 z"
       id="path859"
       inkscape:connector-curvature="0"
       transform="matrix(0.75000002,0,0,-0.75000002,0,20.000001)" /></g></svg>
